<svg width="334" height="38" viewBox="0 0 334 38" fill="none" xmlns="http://www.w3.org/2000/svg">
<path d="M35.72 37H26.984L26.552 24.568L26.504 22.504C26.44 20.584 26.408 19.128 26.408 18.136C26.408 15.736 26.504 13.336 26.696 10.936L22.136 33.544H13.736L8.888 10.936C9.176 14.68 9.32 17.976 9.32 20.824C9.32 22.456 9.304 23.704 9.272 24.568L8.888 37H0.152L2.6 3.64H13.64L18.104 25.768L22.136 3.64H33.224L35.72 37ZM60.587 29.128C60.587 30.056 60.699 30.744 60.923 31.192C61.179 31.64 61.611 31.976 62.219 32.2L60.491 37.72C58.859 37.592 57.515 37.256 56.459 36.712C55.435 36.168 54.603 35.304 53.963 34.12C52.331 36.616 49.755 37.864 46.235 37.864C43.707 37.864 41.675 37.128 40.139 35.656C38.635 34.152 37.883 32.216 37.883 29.848C37.883 27.032 38.923 24.872 41.003 23.368C43.083 21.864 46.091 21.112 50.027 21.112H52.235V20.248C52.235 18.872 51.947 17.944 51.371 17.464C50.795 16.952 49.755 16.696 48.251 16.696C47.451 16.696 46.443 16.824 45.227 17.08C44.043 17.304 42.827 17.624 41.579 18.04L39.707 12.52C41.243 11.88 42.891 11.4 44.651 11.08C46.411 10.728 48.043 10.552 49.547 10.552C53.387 10.552 56.187 11.32 57.947 12.856C59.707 14.36 60.587 16.68 60.587 19.816V29.128ZM48.827 31.864C49.531 31.864 50.171 31.688 50.747 31.336C51.355 30.952 51.851 30.44 52.235 29.8V25.672H50.795C49.259 25.672 48.123 25.96 47.387 26.536C46.651 27.08 46.283 27.912 46.283 29.032C46.283 29.896 46.507 30.584 46.955 31.096C47.403 31.608 48.027 31.864 48.827 31.864ZM82.7536 35.752C81.7616 36.456 80.6096 36.984 79.2976 37.336C77.9856 37.688 76.7056 37.864 75.4576 37.864C69.5376 37.864 66.5776 34.6 66.5776 28.072V17.272H63.2656V11.416H66.5776V5.992L75.1216 4.984V11.416H80.9296L80.0656 17.272H75.1216V27.976C75.1216 29.128 75.2976 29.944 75.6496 30.424C76.0336 30.904 76.5936 31.144 77.3296 31.144C78.2256 31.144 79.0896 30.904 79.9216 30.424L82.7536 35.752ZM100.445 10.552C102.621 10.552 104.333 11.24 105.581 12.616C106.829 13.96 107.453 15.832 107.453 18.232V37H98.9094V19.768C98.9094 18.648 98.7334 17.88 98.3814 17.464C98.0614 17.016 97.5814 16.792 96.9414 16.792C95.6294 16.792 94.3654 17.768 93.1494 19.72V37H84.6054V1.336L93.1494 0.471998V13.912C94.2054 12.76 95.3254 11.912 96.5094 11.368C97.6934 10.824 99.0054 10.552 100.445 10.552ZM135.399 23.8C135.399 23.992 135.351 24.952 135.255 26.68H119.607C119.831 28.632 120.375 29.976 121.239 30.712C122.135 31.416 123.399 31.768 125.031 31.768C125.991 31.768 126.935 31.592 127.863 31.24C128.823 30.856 129.863 30.28 130.983 29.512L134.439 34.216C133.095 35.336 131.559 36.232 129.831 36.904C128.103 37.544 126.231 37.864 124.215 37.864C119.863 37.864 116.551 36.648 114.279 34.216C112.039 31.752 110.919 28.456 110.919 24.328C110.919 21.736 111.383 19.4 112.311 17.32C113.271 15.24 114.679 13.592 116.535 12.376C118.391 11.16 120.631 10.552 123.255 10.552C126.999 10.552 129.959 11.72 132.135 14.056C134.311 16.36 135.399 19.608 135.399 23.8ZM126.999 21.4C126.967 19.704 126.679 18.392 126.135 17.464C125.591 16.536 124.679 16.072 123.399 16.072C122.215 16.072 121.319 16.488 120.711 17.32C120.103 18.152 119.719 19.608 119.559 21.688H126.999V21.4ZM161.16 37H153.72L153.384 33.976C151.592 36.568 149.048 37.864 145.752 37.864C143.384 37.864 141.592 37.16 140.376 35.752C139.192 34.312 138.6 32.328 138.6 29.8V11.416H147.144V28.696C147.144 29.784 147.304 30.552 147.624 31C147.976 31.416 148.488 31.624 149.16 31.624C149.768 31.624 150.36 31.416 150.936 31C151.544 30.552 152.104 29.912 152.616 29.08V11.416H161.16V37ZM175.816 10.552C177.672 10.552 179.432 10.84 181.096 11.416C182.792 11.992 184.232 12.776 185.416 13.768L182.344 18.472C180.296 17.192 178.232 16.552 176.152 16.552C175.256 16.552 174.584 16.696 174.136 16.984C173.72 17.24 173.512 17.608 173.512 18.088C173.512 18.504 173.624 18.84 173.848 19.096C174.072 19.352 174.536 19.64 175.24 19.96C175.976 20.248 177.128 20.632 178.696 21.112C181.32 21.88 183.256 22.888 184.504 24.136C185.752 25.352 186.376 27.064 186.376 29.272C186.376 31 185.864 32.52 184.84 33.832C183.848 35.112 182.456 36.104 180.664 36.808C178.904 37.512 176.904 37.864 174.664 37.864C172.488 37.864 170.44 37.528 168.52 36.856C166.632 36.152 165.032 35.192 163.72 33.976L167.8 29.416C168.792 30.184 169.848 30.792 170.968 31.24C172.12 31.688 173.272 31.912 174.424 31.912C175.448 31.912 176.232 31.752 176.776 31.432C177.352 31.08 177.64 30.568 177.64 29.896C177.64 29.384 177.512 28.984 177.256 28.696C177.032 28.408 176.584 28.136 175.912 27.88C175.24 27.592 174.088 27.208 172.456 26.728C167.496 25.256 165.016 22.552 165.016 18.616C165.016 17.112 165.448 15.752 166.312 14.536C167.176 13.288 168.408 12.312 170.008 11.608C171.64 10.904 173.576 10.552 175.816 10.552ZM214.831 2.776C216.943 2.776 218.847 3.096 220.543 3.736C222.239 4.376 223.823 5.32 225.295 6.568L221.119 11.512C220.127 10.776 219.167 10.216 218.239 9.832C217.311 9.448 216.319 9.256 215.263 9.256C213.151 9.256 211.503 10.168 210.319 11.992C209.135 13.816 208.543 16.568 208.543 20.248C208.543 23.928 209.135 26.664 210.319 28.456C211.535 30.248 213.215 31.144 215.359 31.144C216.511 31.144 217.567 30.92 218.527 30.472C219.519 29.992 220.591 29.304 221.743 28.408L225.679 33.4C224.367 34.712 222.783 35.784 220.927 36.616C219.103 37.448 217.119 37.864 214.975 37.864C211.807 37.864 209.039 37.192 206.671 35.848C204.335 34.472 202.527 32.472 201.247 29.848C199.967 27.192 199.327 23.992 199.327 20.248C199.327 16.6 199.983 13.464 201.295 10.84C202.607 8.216 204.431 6.216 206.767 4.84C209.103 3.464 211.791 2.776 214.831 2.776ZM249.941 37H242.501L242.165 33.976C240.373 36.568 237.829 37.864 234.533 37.864C232.165 37.864 230.373 37.16 229.157 35.752C227.973 34.312 227.381 32.328 227.381 29.8V11.416H235.925V28.696C235.925 29.784 236.085 30.552 236.405 31C236.757 31.416 237.269 31.624 237.941 31.624C238.549 31.624 239.141 31.416 239.717 31C240.325 30.552 240.885 29.912 241.397 29.08V11.416H249.941V37ZM270.789 10.552C272.965 10.552 274.677 11.224 275.925 12.568C277.173 13.912 277.797 15.8 277.797 18.232V37H269.253V19.768C269.253 18.648 269.093 17.88 268.773 17.464C268.453 17.016 267.973 16.792 267.333 16.792C265.989 16.792 264.709 17.768 263.493 19.72V37H254.949V11.416H262.389L263.013 14.296C264.165 13.016 265.365 12.072 266.613 11.464C267.861 10.856 269.253 10.552 270.789 10.552ZM298.399 10.552C300.575 10.552 302.287 11.24 303.535 12.616C304.783 13.96 305.406 15.832 305.406 18.232V37H296.863V19.768C296.863 18.648 296.687 17.88 296.335 17.464C296.015 17.016 295.535 16.792 294.895 16.792C293.583 16.792 292.319 17.768 291.103 19.72V37H282.559V1.336L291.103 0.471998V13.912C292.159 12.76 293.279 11.912 294.463 11.368C295.647 10.824 296.959 10.552 298.399 10.552ZM331.384 29.128C331.384 30.056 331.496 30.744 331.72 31.192C331.976 31.64 332.408 31.976 333.016 32.2L331.288 37.72C329.656 37.592 328.312 37.256 327.256 36.712C326.232 36.168 325.4 35.304 324.76 34.12C323.128 36.616 320.552 37.864 317.032 37.864C314.504 37.864 312.472 37.128 310.936 35.656C309.432 34.152 308.68 32.216 308.68 29.848C308.68 27.032 309.72 24.872 311.8 23.368C313.88 21.864 316.888 21.112 320.824 21.112H323.032V20.248C323.032 18.872 322.744 17.944 322.168 17.464C321.592 16.952 320.552 16.696 319.048 16.696C318.248 16.696 317.24 16.824 316.024 17.08C314.84 17.304 313.624 17.624 312.376 18.04L310.504 12.52C312.04 11.88 313.688 11.4 315.448 11.08C317.208 10.728 318.84 10.552 320.344 10.552C324.184 10.552 326.984 11.32 328.744 12.856C330.504 14.36 331.384 16.68 331.384 19.816V29.128ZM319.624 31.864C320.328 31.864 320.968 31.688 321.544 31.336C322.152 30.952 322.648 30.44 323.032 29.8V25.672H321.592C320.056 25.672 318.92 25.96 318.184 26.536C317.448 27.08 317.08 27.912 317.08 29.032C317.08 29.896 317.304 30.584 317.752 31.096C318.2 31.608 318.824 31.864 319.624 31.864Z" fill="#141414"/>
</svg>
